<svg width="16" height="16" viewBox="0 0 16 16" fill="none" xmlns="http://www.w3.org/2000/svg">
<g clip-path="url(#clip0_1_11273)">
<path fill-rule="evenodd" clip-rule="evenodd" d="M13.6146 2.77235L8.30785 0.0440616C8.10848 -0.0182679 7.89738 -0.0182679 7.69215 0.0440616L2.39129 2.77235C1.86355 2.92194 1.5 3.42681 1.5 4.00024V8.61438C1.5 11.5563 3.9452 14.4921 7.5866 15.9194C7.72147 15.9693 7.8622 15.9942 8.00293 15.9942C8.14366 15.9942 8.27853 15.9693 8.4134 15.9194C12.0548 14.4921 14.5 11.5563 14.5 8.61438V4.00024C14.5 3.42681 14.1364 2.92194 13.6146 2.77235ZM11.2515 6.40168L7.53383 10.0417C7.44001 10.1352 7.31101 10.1851 7.18787 10.1851C7.06473 10.1851 6.92986 10.1352 6.83018 10.0293L5.07691 8.203C4.87167 7.99732 4.87167 7.64827 5.07104 7.43635C5.27041 7.2182 5.59292 7.2182 5.79229 7.42388L7.19959 8.88863L10.5595 5.59763C10.7648 5.39817 11.0931 5.41064 11.2808 5.62879C11.4743 5.85318 11.4626 6.19599 11.2515 6.40168Z" fill="#008DFF"/>
<path fill-rule="evenodd" clip-rule="evenodd" d="M11.2515 6.40131L7.53383 10.0414C7.44001 10.1349 7.31101 10.1847 7.18787 10.1847C7.06473 10.1847 6.92986 10.1349 6.83018 10.0289L5.07691 8.20263C4.87167 7.99695 4.87167 7.6479 5.07104 7.43598C5.27041 7.21783 5.59292 7.21783 5.79229 7.42351L7.19959 8.88826L10.5595 5.59726C10.7648 5.3978 11.0931 5.41027 11.2808 5.62842C11.4743 5.85281 11.4626 6.19562 11.2515 6.40131Z" fill="white"/>
</g>
<defs>
<clipPath id="clip0_1_11273">
<rect width="16" height="16" fill="white"/>
</clipPath>
</defs>
</svg>
