<svg width="44" height="44" viewBox="0 0 44 44" fill="none" xmlns="http://www.w3.org/2000/svg">
<path fill-rule="evenodd" clip-rule="evenodd" d="M23.5 15C23.5 15.8284 22.8284 16.5 22 16.5C21.1716 16.5 20.5 15.8284 20.5 15C20.5 14.1716 21.1716 13.5 22 13.5C22.8284 13.5 23.5 14.1716 23.5 15ZM23.5 22C23.5 22.8284 22.8284 23.5 22 23.5C21.1716 23.5 20.5 22.8284 20.5 22C20.5 21.1716 21.1716 20.5 22 20.5C22.8284 20.5 23.5 21.1716 23.5 22ZM22 30.5C22.8284 30.5 23.5 29.8284 23.5 29C23.5 28.1716 22.8284 27.5 22 27.5C21.1716 27.5 20.5 28.1716 20.5 29C20.5 29.8284 21.1716 30.5 22 30.5Z" fill="#060B11"/>
</svg>
